{
    "asset" : {
        "generator" : "Khronos glTF Blender I/O v1.6.16",
        "version" : "2.0"
    },
    "scene" : 0,
    "scenes" : [
        {
            "name" : "Scene",
            "nodes" : [
                0
            ]
        }
    ],
    "nodes" : [
        {
            "mesh" : 0,
            "name" : "BezierCurve.001",
            "rotation" : [
                -0.5,
                -0.4999999403953552,
                -0.5,
                -0.5000000596046448
            ],
            "scale" : [
                0.5,
                0.5,
                0.5
            ],
            "translation" : [
                0,
                0.5,
                0
            ]
        }
    ],
    "meshes" : [
        {
            "name" : "BezierCurve.001",
            "primitives" : [
                {
                    "attributes" : {
                        "POSITION" : 0,
                        "NORMAL" : 1,
                        "TEXCOORD_0" : 2
                    },
                    "indices" : 3
                }
            ]
        }
    ],
    "accessors" : [
        {
            "bufferView" : 0,
            "componentType" : 5126,
            "count" : 1334,
            "max" : [
                1.6990300416946411,
                0.6736772656440735,
                0.6736775040626526
            ],
            "min" : [
                -1,
                -0.6736775636672974,
                -0.6736776232719421
            ],
            "type" : "VEC3"
        },
        {
            "bufferView" : 1,
            "componentType" : 5126,
            "count" : 1334,
            "type" : "VEC3"
        },
        {
            "bufferView" : 2,
            "componentType" : 5126,
            "count" : 1334,
            "type" : "VEC2"
        },
        {
            "bufferView" : 3,
            "componentType" : 5123,
            "count" : 7776,
            "type" : "SCALAR"
        }
    ],
    "bufferViews" : [
        {
            "buffer" : 0,
            "byteLength" : 16008,
            "byteOffset" : 0
        },
        {
            "buffer" : 0,
            "byteLength" : 16008,
            "byteOffset" : 16008
        },
        {
            "buffer" : 0,
            "byteLength" : 10672,
            "byteOffset" : 32016
        },
        {
            "buffer" : 0,
            "byteLength" : 15552,
            "byteOffset" : 42688
        }
    ],
    "buffers" : [
        {
            "byteLength" : 58240,
            "uri" : "data:application/octet-stream;base64,"
        }
    ]
}
